<?xml version="1.0" encoding="utf-8"?>
<!-- Generator: Adobe Illustrator 15.0.0, SVG Export Plug-In . SVG Version: 6.00 Build 0)  -->
<!DOCTYPE svg PUBLIC "-//W3C//DTD SVG 1.1//EN" "http://www.w3.org/Graphics/SVG/1.1/DTD/svg11.dtd">
<svg version="1.1" id="Layer_1" xmlns="http://www.w3.org/2000/svg" xmlns:xlink="http://www.w3.org/1999/xlink" x="0px" y="0px"
	 width="173.572px" height="44.775px" viewBox="0 0 173.572 44.775" enable-background="new 0 0 173.572 44.775"
	 xml:space="preserve">
<polygon fill="#5CA07D" points="0,36 0,9.042 27,36 "/>
<g>
	<g id="XMLID_1_">
		<g>
			<polygon fill="#2EE88B" points="17.996,-0.002 35.996,35.998 17.996,35.998 			"/>
			<polygon fill="#40D37F" points="17.996,-0.002 17.996,35.998 -0.004,35.998 			"/>
		</g>
		<g>
		</g>
	</g>
</g>
<g>
	<path fill="#42545E" d="M43.814,25.821c0,2.271,0.581,3.994,1.743,5.17s2.678,1.764,4.548,1.764c1.924,0,3.453-0.603,4.588-1.803
		c1.135-1.203,1.703-2.912,1.703-5.131V8.75h4.567v17.433c0,2.939-0.975,5.383-2.925,7.333s-4.595,2.926-7.935,2.926
		s-5.979-0.976-7.915-2.926c-1.938-1.95-2.905-4.395-2.905-7.333V8.75h4.528v17.07H43.814z"/>
	<path fill="#42545E" d="M65.173,44.776V16.564h2.404l1.002,1.563c0.855-0.667,1.851-1.208,2.986-1.623
		c1.135-0.414,2.157-0.621,3.064-0.621c2.858,0,5.029,0.982,6.513,2.945c1.481,1.964,2.224,4.415,2.224,7.354
		c0,2.939-0.755,5.391-2.264,7.354c-1.511,1.964-3.667,2.944-6.473,2.944c-0.748,0-1.562-0.134-2.443-0.399
		c-0.882-0.268-1.71-0.642-2.485-1.122v9.378L65.173,44.776z M69.702,31.231c0.587,0.428,1.229,0.77,1.924,1.021
		c0.694,0.255,1.35,0.381,1.963,0.381c1.896,0,3.227-0.675,3.987-2.024c0.762-1.348,1.142-2.811,1.142-4.387
		c0-1.764-0.354-3.286-1.062-4.569c-0.708-1.281-2.063-1.923-4.067-1.923c-0.614,0-1.269,0.135-1.963,0.401
		s-1.336,0.615-1.924,1.042V31.231z"/>
	<path fill="#42545E" d="M93.906,30.75c0.774,0.399,1.796,0.802,3.065,1.203c1.269,0.399,2.505,0.601,3.707,0.601
		c1.789,0,3.139-0.307,4.048-0.922c0.907-0.614,1.361-1.456,1.361-2.524c0-2.431-2.283-4.308-6.853-5.63s-6.854-4.041-6.854-8.154
		c0-2.004,0.803-3.707,2.404-5.109c1.604-1.402,3.861-2.104,6.773-2.104c1.361,0,2.696,0.201,4.008,0.602
		c1.309,0.4,2.457,0.842,3.445,1.323c-0.24,0.614-0.494,1.222-0.763,1.822c-0.267,0.602-0.521,1.196-0.761,1.783
		c-0.722-0.347-1.55-0.688-2.484-1.021c-0.936-0.333-1.99-0.501-3.166-0.501c-1.361,0-2.512,0.248-3.445,0.741
		c-0.937,0.495-1.402,1.289-1.402,2.385c0,2.539,2.29,4.481,6.873,5.831c4.581,1.35,6.872,4.015,6.872,7.994
		c0,2.164-0.862,3.947-2.585,5.351s-4.201,2.104-7.435,2.104c-1.147,0-2.599-0.233-4.348-0.7c-1.75-0.469-2.919-0.955-3.507-1.464
		L93.906,30.75z"/>
	<path fill="#42545E" d="M124.201,35.72c-0.4,0.267-0.955,0.501-1.662,0.701c-0.709,0.2-1.355,0.3-1.942,0.3
		c-2.164,0-3.875-0.561-5.131-1.683c-1.257-1.122-1.884-2.737-1.884-4.85V20.171h-2.645v-3.486h2.645v-4.688l4.528-0.921v5.609
		h3.526l1.401,3.486h-4.929v9.257c0,0.988,0.228,1.812,0.682,2.465c0.454,0.654,1.162,0.981,2.124,0.981
		c0.348,0,0.688-0.046,1.021-0.141c0.333-0.094,0.661-0.207,0.981-0.341L124.201,35.72z"/>
	<path fill="#42545E" d="M125.844,17.807c0.747-0.507,1.856-0.928,3.325-1.263c1.471-0.333,2.619-0.501,3.447-0.501
		c2.297,0,4.234,0.655,5.812,1.964c1.575,1.309,2.363,2.979,2.363,5.009V36h-2.443c-0.188-0.268-0.375-0.556-0.562-0.861
		c-0.188-0.307-0.375-0.594-0.562-0.861c-0.695,0.589-1.551,1.103-2.565,1.543c-1.016,0.439-2.018,0.66-3.005,0.66
		c-2.324,0-4.055-0.573-5.189-1.723c-1.136-1.148-1.703-2.631-1.703-4.448c0-1.977,0.668-3.493,2.004-4.548s3.086-1.583,5.25-1.583
		h4.208c-0.08-1.147-0.374-2.104-0.883-2.865c-0.508-0.762-1.389-1.142-2.645-1.142c-1.016,0-2.023,0.134-3.025,0.401
		c-1.002,0.267-1.862,0.574-2.585,0.921c-0.214-0.614-0.428-1.229-0.642-1.844S126.031,18.421,125.844,17.807z M128.689,30.31
		c0,0.643,0.254,1.235,0.762,1.783s1.215,0.821,2.124,0.821c0.827,0,1.649-0.207,2.464-0.621c0.815-0.414,1.558-0.955,2.226-1.623
		v-3.446h-4.328c-1.068,0-1.877,0.309-2.424,0.922C128.963,28.76,128.689,29.482,128.689,30.31z"/>
	<path fill="#42545E" d="M154.978,35.72c-0.4,0.267-0.956,0.501-1.663,0.701c-0.708,0.2-1.355,0.3-1.943,0.3
		c-2.164,0-3.874-0.561-5.129-1.683c-1.257-1.122-1.885-2.737-1.885-4.85V20.171h-2.646v-3.486h2.646v-4.688l4.529-0.921v5.609
		h3.525l1.402,3.486h-4.929v9.257c0,0.988,0.227,1.812,0.682,2.465c0.453,0.654,1.162,0.981,2.123,0.981
		c0.348,0,0.688-0.046,1.021-0.141c0.333-0.094,0.662-0.207,0.982-0.341L154.978,35.72z"/>
	<path fill="#42545E" d="M173.572,27.504h-13.465c0.186,1.522,0.761,2.765,1.723,3.727c0.961,0.962,2.324,1.442,4.088,1.442
		c1.016,0,1.896-0.12,2.646-0.361c0.748-0.239,1.549-0.561,2.403-0.961c0.24,0.535,0.476,1.082,0.701,1.644
		c0.228,0.562,0.447,1.108,0.661,1.644c-0.882,0.643-1.978,1.108-3.286,1.402c-1.308,0.294-2.378,0.439-3.205,0.439
		c-3.312,0-5.892-0.928-7.733-2.785c-1.844-1.854-2.767-4.319-2.767-7.393c0-3.072,0.855-5.55,2.564-7.434
		c1.71-1.884,4.034-2.825,6.973-2.825c3.34,0,5.624,1.156,6.854,3.467C172.957,21.821,173.572,24.486,173.572,27.504z
		 M169.244,24.458c-0.268-1.442-0.77-2.559-1.504-3.347c-0.734-0.787-1.729-1.182-2.984-1.182c-1.282,0-2.317,0.401-3.105,1.203
		c-0.788,0.801-1.276,1.91-1.462,3.326L169.244,24.458L169.244,24.458z"/>
</g>
</svg>
