<?xml version="1.0" encoding="utf-8"?>
<!-- Generator: Adobe Illustrator 15.0.0, SVG Export Plug-In . SVG Version: 6.00 Build 0)  -->
<!DOCTYPE svg PUBLIC "-//W3C//DTD SVG 1.1//EN" "http://www.w3.org/Graphics/SVG/1.1/DTD/svg11.dtd">
<svg version="1.1" id="Layer_1" xmlns="http://www.w3.org/2000/svg" xmlns:xlink="http://www.w3.org/1999/xlink" x="0px" y="0px"
	 width="685.667px" height="75.841px" viewBox="0 0 685.667 75.841" enable-background="new 0 0 685.667 75.841"
	 xml:space="preserve">
<path fill="#E3E5E2" d="M685.667,75.414H0v-70.6C0,2.155,1.866,0,4.167,0H681.5c2.302,0,4.167,2.155,4.167,4.814V75.414z"/>
<rect y="38.663" fill="#F5F6F4" width="685.667" height="36.751"/>
<path fill="#F5F6F4" d="M295.334,41.666c2.93,0-224.243,0-219.999,0s13.088-23.558,13.088-23.558c0-3.098,2.375-5.609,5.305-5.609
	h185.688c2.93,0,5.305,2.511,5.305,5.609C284.722,18.108,292.404,41.666,295.334,41.666z"/>
<circle fill="#7BC306" cx="62.791" cy="20.956" r="5.792"/>
<circle fill="#ECA300" cx="42" cy="20.956" r="5.792"/>
<circle fill="#C83C31" cx="21.001" cy="20.956" r="5.792"/>
<path fill="#FEFEFD" stroke="#E7E9E6" stroke-width="0.8292" stroke-miterlimit="10" d="M651.667,65.166c0,2.209-1.232,4-2.751,4
	H94.239c-1.519,0-2.75-1.791-2.75-4V46.667c0-2.209,1.231-4,2.75-4h554.678c1.519,0,2.751,1.791,2.751,4V65.166z"/>
<g>
	
		<line fill="none" stroke="#CFD2CF" stroke-width="3" stroke-linecap="round" stroke-miterlimit="10" x1="30.168" y1="57.007" x2="17.501" y2="57.007"/>
	
		<line fill="none" stroke="#CFD2CF" stroke-width="3" stroke-linecap="round" stroke-miterlimit="10" x1="22.501" y1="51.682" x2="17.355" y2="56.829"/>
	
		<line fill="none" stroke="#CFD2CF" stroke-width="3" stroke-linecap="round" stroke-miterlimit="10" x1="22.502" y1="62.153" x2="17.354" y2="57.007"/>
</g>
<g>
	
		<line fill="none" stroke="#CFD2CF" stroke-width="3" stroke-linecap="round" stroke-miterlimit="10" x1="40.999" y1="56.828" x2="53.666" y2="56.828"/>
	
		<line fill="none" stroke="#CFD2CF" stroke-width="3" stroke-linecap="round" stroke-miterlimit="10" x1="48.666" y1="62.153" x2="53.812" y2="57.006"/>
	
		<line fill="none" stroke="#CFD2CF" stroke-width="3" stroke-linecap="round" stroke-miterlimit="10" x1="48.665" y1="51.682" x2="53.812" y2="56.828"/>
</g>
<g>
	<path fill="none" stroke="#696B68" stroke-width="2.8024" stroke-linecap="round" stroke-miterlimit="10" d="M78.323,52.062
		c-2.657-1.828-6.292-1.155-8.119,1.501c-1.828,2.658-1.154,6.293,1.502,8.119c2.656,1.827,6.291,1.155,8.119-1.502
		c0.093-0.135,0.175-0.274,0.255-0.413"/>
	<polygon fill="#696B68" points="81.378,55.871 74.628,55.871 81.378,49.121 	"/>
</g>
<line fill="none" stroke="#E4E5E3" stroke-width="0.8543" stroke-miterlimit="10" x1="0" y1="75.414" x2="685.667" y2="75.414"/>
<g>
	
		<line fill="none" stroke="#777A77" stroke-width="2.8459" stroke-linecap="round" stroke-miterlimit="10" x1="660.823" y1="50.257" x2="674.322" y2="50.257"/>
	
		<line fill="none" stroke="#777A77" stroke-width="2.8459" stroke-linecap="round" stroke-miterlimit="10" x1="660.823" y1="55.507" x2="674.322" y2="55.507"/>
	
		<line fill="none" stroke="#777A77" stroke-width="2.8459" stroke-linecap="round" stroke-miterlimit="10" x1="660.823" y1="60.257" x2="674.322" y2="60.257"/>
</g>
</svg>
