<?xml version="1.0" encoding="utf-8"?>
<!-- Generator: Adobe Illustrator 15.0.0, SVG Export Plug-In . SVG Version: 6.00 Build 0)  -->
<!DOCTYPE svg PUBLIC "-//W3C//DTD SVG 1.1//EN" "http://www.w3.org/Graphics/SVG/1.1/DTD/svg11.dtd">
<svg version="1.1" id="Layer_1" xmlns="http://www.w3.org/2000/svg" xmlns:xlink="http://www.w3.org/1999/xlink" x="0px" y="0px"
	 width="176.134px" height="38.107px" viewBox="0 0 176.134 38.107" enable-background="new 0 0 176.134 38.107"
	 xml:space="preserve">
<g>
	<path fill="#42545E" d="M42.506,13.12c0.781-0.705,1.72-1.26,2.816-1.663c1.096-0.403,2.098-0.605,3.005-0.605
		c2.369,0,4.063,0.687,5.084,2.06c1.021,1.374,1.531,3.081,1.531,5.123v11.794h-4.271v-11.53c0-1.184-0.284-2.117-0.851-2.797
		c-0.567-0.68-1.417-1.021-2.552-1.021c-0.731,0-1.538,0.208-2.419,0.624c-0.882,0.416-1.663,0.939-2.344,1.568v13.156h-4.233V3.556
		l4.233-0.416V13.12z"/>
	<path fill="#42545E" d="M60.159,8.546c-0.706,0-1.298-0.239-1.776-0.718c-0.479-0.479-0.718-1.071-0.718-1.777
		c-0.025-0.705,0.208-1.304,0.699-1.795c0.491-0.492,1.09-0.737,1.795-0.737s1.304,0.246,1.796,0.737
		c0.491,0.491,0.737,1.09,0.737,1.795c0,0.706-0.246,1.298-0.737,1.777C61.463,8.307,60.865,8.546,60.159,8.546z M58.004,29.829
		V11.494h4.31v18.334H58.004z"/>
	<path fill="#42545E" d="M82.16,30.282c0,2.117-0.718,3.887-2.155,5.311s-3.68,2.137-6.729,2.137c-0.782,0-1.878-0.164-3.289-0.492
		c-1.412-0.327-2.583-0.807-3.516-1.436c0.227-0.505,0.447-1.016,0.662-1.531c0.214-0.518,0.422-1.027,0.624-1.531
		c1.007,0.479,1.909,0.856,2.703,1.135c0.794,0.276,1.695,0.415,2.703,0.415c1.486,0,2.639-0.353,3.458-1.058
		c0.819-0.707,1.229-1.701,1.229-2.986v-1.551c-0.756,0.479-1.582,0.863-2.476,1.153c-0.895,0.289-1.733,0.435-2.514,0.435
		c-2.671,0-4.706-0.92-6.105-2.76c-1.398-1.839-2.098-4.145-2.098-6.917c0-2.797,0.731-5.122,2.193-6.975
		c1.461-1.852,3.528-2.778,6.199-2.778c0.882,0,1.871,0.202,2.968,0.605c1.096,0.403,2.035,0.945,2.816,1.625l1.021-1.588h2.306
		V30.282z M77.851,16.03c-0.63-0.454-1.285-0.825-1.965-1.115c-0.681-0.29-1.336-0.435-1.966-0.435
		c-1.814,0-3.081,0.637-3.799,1.909c-0.718,1.273-1.077,2.665-1.077,4.177c0,1.663,0.34,3.094,1.021,4.291
		c0.681,1.196,1.966,1.795,3.856,1.795c0.629,0,1.285-0.145,1.966-0.435c0.68-0.29,1.335-0.661,1.965-1.115V16.03z"/>
	<path fill="#42545E" d="M89.984,13.12c0.781-0.705,1.72-1.26,2.816-1.663c1.096-0.403,2.098-0.605,3.005-0.605
		c2.369,0,4.063,0.687,5.084,2.06c1.021,1.374,1.531,3.081,1.531,5.123v11.794H98.15v-11.53c0-1.184-0.284-2.117-0.852-2.797
		c-0.566-0.68-1.417-1.021-2.551-1.021c-0.731,0-1.538,0.208-2.419,0.624c-0.882,0.416-1.663,0.939-2.344,1.568v13.156h-4.233V3.556
		l4.233-0.416V13.12z"/>
	<path fill="#42545E" d="M122.834,29.563c-0.378,0.253-0.9,0.473-1.568,0.662s-1.279,0.283-1.834,0.283
		c-2.041,0-3.654-0.529-4.838-1.588c-1.186-1.059-1.777-2.582-1.777-4.574v-9.45h-2.494v-3.289h2.494V7.185l4.271-0.869v5.292h3.327
		l1.323,3.289h-4.65v8.732c0,0.933,0.215,1.708,0.643,2.325c0.429,0.617,1.097,0.926,2.004,0.926c0.327,0,0.648-0.043,0.964-0.133
		c0.315-0.088,0.624-0.194,0.927-0.32L122.834,29.563z"/>
	<path fill="#42545E" d="M132.058,30.282c-2.849-0.025-5.041-0.913-6.577-2.665c-1.538-1.751-2.307-4.088-2.307-7.012
		c0.025-2.873,0.844-5.185,2.457-6.937c1.613-1.751,3.855-2.64,6.729-2.665c2.949,0,5.217,0.907,6.805,2.722
		s2.382,4.171,2.382,7.069c-0.025,2.873-0.896,5.173-2.608,6.898C137.223,29.418,134.93,30.282,132.058,30.282z M137.16,20.793
		c0-1.839-0.384-3.32-1.152-4.442c-0.77-1.121-1.947-1.682-3.535-1.682c-1.587,0-2.797,0.51-3.629,1.531
		c-0.831,1.021-1.247,2.476-1.247,4.366c0,1.915,0.353,3.408,1.059,4.479c0.705,1.071,1.853,1.606,3.44,1.606
		s2.822-0.492,3.704-1.475S137.135,22.734,137.16,20.793z"/>
	<path fill="#42545E" d="M144.04,38.107V11.494h2.269l0.945,1.474c0.806-0.629,1.744-1.14,2.815-1.531
		c1.071-0.391,2.035-0.586,2.892-0.586c2.697,0,4.744,0.926,6.143,2.778c1.399,1.853,2.099,4.165,2.099,6.937
		c0,2.772-0.712,5.084-2.136,6.937s-3.459,2.778-6.105,2.778c-0.705,0-1.474-0.127-2.306-0.378
		c-0.831-0.251-1.612-0.604-2.344-1.059v8.846L144.04,38.107z M148.312,25.33c0.554,0.403,1.159,0.725,1.814,0.964
		c0.655,0.24,1.272,0.359,1.853,0.359c1.789,0,3.043-0.637,3.762-1.909c0.718-1.272,1.076-2.652,1.076-4.139
		c0-1.663-0.334-3.1-1.001-4.31c-0.668-1.209-1.946-1.814-3.837-1.814c-0.58,0-1.197,0.126-1.853,0.378
		c-0.655,0.252-1.261,0.58-1.814,0.983V25.33z"/>
	<path fill="#42545E" d="M174.206,15.917c-0.781-0.378-1.556-0.687-2.325-0.926c-0.769-0.239-1.619-0.359-2.551-0.359
		c-0.781,0-1.398,0.158-1.853,0.473c-0.454,0.315-0.681,0.75-0.681,1.304c0,0.429,0.271,0.812,0.812,1.153s1.316,0.699,2.325,1.077
		c1.512,0.529,2.923,1.279,4.233,2.25s1.966,2.237,1.966,3.799c0,1.765-0.637,3.138-1.909,4.12
		c-1.272,0.983-3.144,1.475-5.613,1.475c-0.781,0-1.803-0.139-3.062-0.416s-2.305-0.73-3.137-1.361l1.285-3.1
		c0.832,0.404,1.663,0.713,2.494,0.927c0.832,0.214,1.626,0.321,2.383,0.321c1.058,0,1.871-0.157,2.438-0.473
		c0.566-0.314,0.851-0.75,0.851-1.305c0-0.604-0.296-1.139-0.888-1.606c-0.594-0.466-1.443-0.875-2.553-1.229
		c-1.436-0.479-2.803-1.153-4.102-2.022c-1.298-0.87-1.946-2.047-1.946-3.535c0-1.713,0.63-3.055,1.89-4.026
		c1.26-0.97,2.974-1.455,5.142-1.455c0.78,0,1.776,0.158,2.986,0.472c1.21,0.315,2.243,0.763,3.1,1.342L174.206,15.917z"/>
</g>
<g>
	<linearGradient id="SVGID_1_" gradientUnits="userSpaceOnUse" x1="11.9805" y1="10.5762" x2="33.1338" y2="10.5762">
		<stop  offset="0" style="stop-color:#1C75BC"/>
		<stop  offset="0.1749" style="stop-color:#1D7BC0"/>
		<stop  offset="0.5" style="stop-color:#1E7EC2"/>
		<stop  offset="0.5" style="stop-color:#26A4DC"/>
		<stop  offset="1" style="stop-color:#27AAE1"/>
	</linearGradient>
	<polygon fill="url(#SVGID_1_)" points="33.134,10.575 22.557,21.152 11.98,10.575 22.557,0 	"/>
	<linearGradient id="SVGID_2_" gradientUnits="userSpaceOnUse" x1="0" y1="15.9341" x2="27.7852" y2="15.9341">
		<stop  offset="0" style="stop-color:#1C75BC"/>
		<stop  offset="0.1749" style="stop-color:#1D7BC0"/>
		<stop  offset="0.5" style="stop-color:#1E7EC2"/>
		<stop  offset="0.5" style="stop-color:#26A4DC"/>
		<stop  offset="1" style="stop-color:#27AAE1"/>
	</linearGradient>
	<polygon fill="url(#SVGID_2_)" points="27.785,15.934 13.893,29.827 0,15.934 13.893,2.041 	"/>
</g>
</svg>
