<?xml version="1.0" encoding="utf-8"?>
<!-- Generator: Adobe Illustrator 15.0.0, SVG Export Plug-In . SVG Version: 6.00 Build 0)  -->
<!DOCTYPE svg PUBLIC "-//W3C//DTD SVG 1.1//EN" "http://www.w3.org/Graphics/SVG/1.1/DTD/svg11.dtd">
<svg version="1.1" id="Layer_1" xmlns="http://www.w3.org/2000/svg" xmlns:xlink="http://www.w3.org/1999/xlink" x="0px" y="0px"
	 width="115.529px" height="110.481px" viewBox="0 0 115.529 110.481" enable-background="new 0 0 115.529 110.481"
	 xml:space="preserve">
<g>
	<path fill-rule="evenodd" clip-rule="evenodd" fill="#D1D3D4" d="M56.057,52.016c0.012,0.061,0.006,0.11-0.012,0.151
		C56.135,52.1,56.232,52.049,56.057,52.016z"/>
	<path fill-rule="evenodd" clip-rule="evenodd" fill="#D1D3D4" d="M56.045,52.167c-0.043,0.034-0.084,0.07-0.091,0.111
		C55.994,52.249,56.027,52.212,56.045,52.167z"/>
	<path fill-rule="evenodd" clip-rule="evenodd" fill="#D1D3D4" d="M110.888,7.093c-0.013-0.015-0.024-0.03-0.038-0.045
		C110.827,7.185,110.866,7.151,110.888,7.093z"/>
	<path fill-rule="evenodd" clip-rule="evenodd" fill="#DE878A" d="M74.914,93.904c-1.092,0.794-1.29,2.581-1.887,3.97
		c-0.099,0.299-0.595,0.695-0.992,0.695c-0.859,0.099-1.743,0.154-2.63,0.215c0.049,0.029,0.073,0.084,0.052,0.184
		c0.111,0.675-0.825,0.301-1.291,0.397c-0.575,0.648-1.524,0.925-1.488,2.184c0.523-0.007,0.729-0.329,1.29-0.298
		c0.841,0.949,3.101,0.229,3.971,0.695c0.021,0.65-0.399,0.619-0.794,1.092c0.66-0.002,0.982-0.401,1.76-0.287
		c0.441,0.551,1.121,0.979,1.218,1.875c-2.731,0.442-6.858-1.79-7.048,1.489c0.235,0.001,0.696-0.625,1.489-0.397
		c0.175,0.321,3.155,1.158,4.367,1.291c3.925,0.43,6.737,2.373,10.125,3.275c0.37-0.523,0.141-1.646,0.497-2.184
		c3.02-0.077,7.133,0.458,9.926,0.1c0.744-0.096,0.993-0.835,1.29-1.391c0.902,0.059,1.582,0.338,2.185,0.695
		c0.196-3.822-8.762-1.563-9.629-1.688c1.719-0.729,1.131-2.238,0.298-2.481c-1.411-0.412-2.675,0.944-4.368,1.191
		c-2.948,0.429-4.021-1.103-5.062-2.979c2.104,0.087,5.37,0.8,7.544,0.497c0.419,0.012,0.062,0.798,0.597,0.694
		c0.563-0.431,0.388-1.544,0.496-2.185c2.297-0.04,4.598,0.153,6.749-0.197c0.266-0.232,0.223-0.771,0.597-0.894
		c0.958-0.032,1.317,0.536,1.985,0.794c-0.385-2.373-2.396-2.193-4.764-1.985c-2.591,0.227-5.531,0.409-7.645,0
		c0.085-0.485,0.446-0.97,0.198-1.489c-1.389-0.035-2.632,0.854-4.269,0.894c-0.748-1.892-2.706-3.09-4.068-4.562
		C75.413,93.442,75.17,93.722,74.914,93.904z"/>
	<path fill-rule="evenodd" clip-rule="evenodd" fill="#D1D3D4" d="M105.887,30.276c0-0.232,0-0.463,0-0.695
		c-1.497-3.035-1.541-7.525-2.978-10.622c0.209-0.743-0.099-1.202-0.099-1.787c0-3.131,3.215-5.572,6.65-5.261
		c1.964,0.178,4.011,0.437,6.055,0.695c-0.303-3.078-3.132-3.63-4.628-5.514c-0.021,0.058-0.013-0.015,0,0
		c0.023-0.062-2.917-3.278-2.881-1.97c0.526-0.216-4.07-4.982-8.572-4.925c-3.329,0.043-6.697,1.323-8.537,2.878
		c-3.461,2.928-5.63,8.249-6.65,13.6c-0.856,4.493-1.245,8.783-3.417,12.918c-2.301,4.377-5.849,7.938-9.354,11.359
		c-4.192,4.091-13.743,9.973-13.705,9.903c-5.063,3.754-9.961,7.777-14.941,11.644c-1.783,1.383-3.551,2.783-5.262,4.254
		c-1.251,1.074-2.943,3.412-4.442,4.021C30.56,71.819,12.663,84.735,12.84,85.069c-4.325,2.326-4.255,4.785-3.839,4.963
		c7.357-1.709,4.834-1.586,11.912-3.572c0.646-0.485,1.712-0.035,2.581-0.266c1.529-0.403,2.83-1.225,4.235-1.555
		c1.613-0.38,3.07,0.326,4.9,0.232c0.961-0.049,1.845-0.442,2.879-0.197c0.284,0.066,1.146-0.174,1.42-0.102
		c1.557,0.412,2.377-0.326,3.705,0.133c0.777-0.523,1.499,0.342,2.316,0.165c0.646-0.14,0.649,0.051,1.292,0.001
		c1.031-0.078,3.565,1.857,4.524,2.326c2.025,0.988,4.209,2.341,6.368,2.979c3.818,1.129,9.122-0.924,10.45,4.026
		c0.3,1.116,1.305,2.284,1.887,3.077c0.427,0.584,0.489,1.132,1.191,1.391c0.037,0.246,0.563,0.006,0.742,0.113
		c0.887-0.061,1.771-0.116,2.63-0.215c0.397,0,0.894-0.396,0.992-0.695c0.597-1.389,0.795-3.176,1.887-3.97
		c0.256-0.183,0.499-0.462,0.698-0.789c-0.347-0.376-0.654-0.769-0.895-1.194c-1.407-2.505,0.957-2.445,2.185-3.475
		c0.364-0.307,23.758-13.903,25.244-15.189c2.942-2.547,5.495-5.126,7.116-8.933c0.841-1.979,1.078-4.826,1.289-7.345
		c0.484-5.743-1.32-10.797-2.184-15.983C107.746,37.256,107.064,33.67,105.887,30.276z"/>
	<g>
		<path fill-rule="evenodd" clip-rule="evenodd" fill="#58595B" d="M83.982,96.842c0.465,0.485,0.096,1.118-0.247,1.254
			C83.91,97.702,83.993,97.134,83.982,96.842z"/>
		<path fill-rule="evenodd" clip-rule="evenodd" fill="#B27277" d="M77.933,107.901c-0.286-0.171-1.236-1.151-1.555-1.341
			c0.207-0.212-0.189-1.843-0.77-2.456c-0.288-0.305-3.925-3.582-5.057-4.449c-0.364-0.28-0.724-0.564-1.081-0.854
			c-0.529-0.43,3.242,2.813,2.597,2.962c-0.114,0.411-1.039,0.993-1.024,1.472c0.583-0.152,1.186-0.409,1.749-0.447
			c0.639,0.62,1.227,1.699,1.924,2.259c-1.37,0.757-6.258,0.376-6.254,0.372c-0.074,0.745,2.613,1.613,3.59,1.539
			c0.976-0.074,2.786,0.58,4.085,0.762c0.873,0.122,6.175,2.609,7.065,2.613C83.171,110.13,78.025,107.831,77.933,107.901z"/>
		<path fill-rule="evenodd" clip-rule="evenodd" fill="#58595B" d="M67.965,99.724c-0.69,0.174-1.278,0.799-1.283,1.842
			c0.433-0.093,0.678-0.372,1.275-0.299C68.111,100.752,68.114,100.226,67.965,99.724z"/>
		<path fill-rule="evenodd" clip-rule="evenodd" fill="#58595B" d="M87.669,103.459c0.894,0.397,0.744,1.452,0.359,1.823
			C88.047,104.657,87.845,103.847,87.669,103.459z"/>
		<path fill-rule="evenodd" clip-rule="evenodd" fill="#58595B" d="M28.382,85.091c0.003-0.002,0.006-0.002,0.008-0.004
			C28.371,85.089,28.369,85.09,28.382,85.091z"/>
		<path fill-rule="evenodd" clip-rule="evenodd" fill="#58595B" d="M112.469,9.05c-0.072-0.024-0.146-0.042-0.22-0.061
			c-0.286,0.187-0.926,0.279-1.028,0.589c-0.1,0.199-2.921,1.341-3.317,1.241c0.736,0.491,2.378,0.165,2.474,0.894
			c0.011-0.003,0,0.174,0.471,0.273c0.472,0.099,3.076,0.968,4.599,0.638C114.779,11.083,113.987,9.566,112.469,9.05z"/>
		<path fill-rule="evenodd" clip-rule="evenodd" fill="#B27277" d="M92.286,99.661c-0.027,0.266,1.023,0.578,1.314,0.671
			c-0.29,0.251-6.333,0.194-6.75,0.173c0.034-0.229-0.196-0.18-0.348-0.496C87.295,99.724,92.142,99.716,92.286,99.661z"/>
		<path fill-rule="evenodd" clip-rule="evenodd" fill="#58595B" d="M68.423,104.624c-0.685,0.188-1.311,0.781-1.195,1.259
			c0.247-0.342,1.003-0.175,1.279-0.485C68.522,105.146,68.481,104.884,68.423,104.624z"/>
		<path fill-rule="evenodd" clip-rule="evenodd" fill="#58595B" d="M83.021,108.133c0.101-0.099,1.289,1.29,0.23,2.349
			C82.719,110.312,83.009,108.144,83.021,108.133z"/>
		<path fill-rule="evenodd" clip-rule="evenodd" fill="#B27277" d="M82.127,101.265c-2.018-0.1-2.958-0.211-2.994-0.678
			c-0.671,0.096-4.649-5.591-4.848-5.889c-0.199,0.261-0.363,0.015-0.413,0.775c0.188,0.868,1.158,2.185,1.471,2.598
			c0.462,0.613,2.688,2.174,2.946,3.656c2.255-0.136,5.389,0.793,7.627,0.39C85.974,101.943,84.146,101.364,82.127,101.265z"/>
		<path fill-rule="evenodd" clip-rule="evenodd" fill="#58595B" d="M94.052,105.552c1.434,0.104,2.65,0.398,2.785,1.655
			c-0.325-0.157-1.844-0.667-2.329-0.452C94.432,106.634,94.507,105.946,94.052,105.552z"/>
		<path fill-rule="evenodd" clip-rule="evenodd" fill="#58595B" d="M92.979,98.289c1.438,0.019,2.67,0.242,2.879,1.489
			c-0.524-0.215-1.52-1.259-2.612,0.148C93.44,99.29,92.914,98.532,92.979,98.289z"/>
		<path fill-rule="evenodd" clip-rule="evenodd" fill="#58595B" d="M86.132,101.647c-0.127,0.168-0.182,0.354-0.24,0.526
			c0.024-0.005,0.038,0.394-0.109,0.962c1.078-0.492,1.101-1.053,0.997-1.621C86.511,101.474,86.271,101.437,86.132,101.647z"/>
		<path fill-rule="evenodd" clip-rule="evenodd" fill="#6D6E71" d="M110.648,10.025c0.397,0.099,0.896-0.1,0.994-0.298
			c0.103-0.31,3.602,3.048,3.887,2.862c-0.265-2.63-2.531-3.739-3.623-4.434c0.295-0.086-2.285-0.482-2.913,0.596
			c-1.817,0.033-3.012-0.602-3.571-1.506c0.175,0.283,1.57-3.342,2.398-2.085c2.415,1.357-2.638-3.562-4.748-4.334
			C90.117-3.392,86.177,9.769,85.273,12.625c-0.974,3.076-1.801,6.68-2.187,9.874c-0.695,5.758-5.633,12.409-2.607,14.985
			c0.955,0.812,17.383,9.496,19.123,14.546c1.741,5.05-1.002,11.128-4.141,15.47c-3.139,4.341-20.251,13.434-30.641,13.716
			c-4.425-0.203-10.378-2.07-13.682-5.098c-1.244-1.14-6.584-10.979-6.67-11.104c-1.026-1.477,2.01-4.252,3.195-4.96
			c-0.349,0.907-1.042,2.085,1.373,1.808c1.081,5.95,6.035,11.688,11.323,14.643c1.06,0.592,9.788,3.304,13.142,1.574
			c0.037-0.133,1.644-0.748,1.921-1.501c-0.312-0.116-8.601-0.938-12.571-4.513c-3.97-3.573-12.526-12.23-12.618-12.659
			c-0.002-0.01-0.004-0.019-0.006-0.028c0.04-0.529,1.074-2.416,0.396-2.283c-0.677,0.131-5.541,3.854-6.285,4.647
			s-4.021,4.348-4.293,6.368c-0.273,2.02,5.807,10.124,11.166,12.507c1.13,0.503-14.417-2.396-14.913-5.325
			c-0.396-1.736-0.145-5.898,0.099-7.296C36,68.001,19.786,76.194,17.173,77.245c-1.502,0.604-3.373,2.084-4.665,2.979
			c-0.981,0.678-1.929,1.176-1.985,1.984c-0.521,0.13-0.629,1.129-0.397,1.688c0.378,0.109,0.62-0.262,0.695,0.1
			c-0.179,0.355-0.067,0.807,0.099,1.092c0.287,0.111,0.775,0.02,0.993,0.199c-2.9,1.713-5.914,3.088-8.438,5.162
			C2.349,91.372,1.01,92.071,0,93.128c0.589-0.01,0.573,0.508,0.397,0.992c2.671-0.451,4.55-1.372,7.346-2.283
			c3.424-1.115,7.329-2.281,10.025-3.871c1.662-0.062,3.589-0.711,5.162-1.191c-0.078-0.021,3.959-1.068,5.451-1.684
			c-0.013-0.001-0.011-0.002,0.008-0.004c-0.002,0.002-0.005,0.002-0.008,0.004c0.283,0.014,8.095-0.197,8.148-0.004
			c0.727,0.135,11.879,0.846,12.722,1.099c3.726,1.118,3.701,3.701,10.871,3.683c7.171-0.02,43.975-13.633,49.335-30.111
			c1.753-4.557-0.279-14.075-0.566-15.58c-0.482-2.54-1.296-5.762-1.784-8.623c-0.624-3.66-2.479-11.086-3.042-12.988
			c-0.452-1.321-1.201-5.158-1.159-5.691c0.168-2.102,1.864-3.14,2.018-3.258c1.239-0.956,2.562-1.646,4.467-1.489
			c0.487,0.04,1.395,0.033,1.742-0.067C111.038,11.331,111.386,10.516,110.648,10.025z"/>
	</g>
	<path fill-rule="evenodd" clip-rule="evenodd" fill="#726658" d="M61.942,86.278"/>
	<path fill="#BF9700" d="M97.477,3.4c-0.818,1.153-1.958,4.802,0.486,4.464c2.131,0.87,4.745-1.165,4.479-2.431
		C101.95,3.104,99.203,0.961,97.477,3.4z"/>
	<path fill="#001738" d="M100.567,5.755c0.031,1.156-1.127,0.413-1.941,0.386c-0.635-0.021-1.459,0.805-1.416-0.755
		c0.018-0.71,0.189-1.46,0.753-1.864c0.537-0.386,1.557-0.387,2.083,0.075C100.645,4.119,100.566,5.731,100.567,5.755z"/>
	<path fill="#FFFFFF" d="M98.895,4.523c0.139-0.037,0.216-0.129,0.344-0.146c0.127-0.018,0.14-0.025,0.134,0.063
		c-0.007,0.089-0.212,0.316-0.178,0.516c0.034,0.199,0.299,0.257,0.394,0.188c0.096-0.069,0.584-1.037,0.106-1.334
		c-0.405-0.252-0.948-0.033-1.018,0.232C98.608,4.307,98.757,4.561,98.895,4.523z"/>
	<path fill="#FFFFFF" d="M99.473,5.478c0.002,0.054,0.029,0.091,0.025,0.14s-0.002,0.054-0.034,0.045
		c-0.032-0.01-0.101-0.104-0.177-0.108c-0.076-0.003-0.12,0.09-0.102,0.131c0.018,0.041,0.337,0.301,0.486,0.148
		c0.126-0.131,0.09-0.35-0.003-0.397C99.576,5.389,99.47,5.424,99.473,5.478z"/>
	<path fill="#FFFFFF" d="M98.286,4.979c0.05,0.227-0.017,0.554,0.348,0.603c0.037,0.128,0.082,0.25,0.059,0.395
		c-0.632,0.066-0.839-0.805-0.918-1.304C97.864,4.642,98.251,4.814,98.286,4.979z"/>
	<path fill-rule="evenodd" clip-rule="evenodd" fill="#DE878A" d="M83.204,107.182"/>
	
		<image overflow="visible" opacity="0.37" width="31" height="49" xlink:href="5FA51E1C.png"  transform="matrix(1 0 0 1 79.333 11.6533)">
	</image>
</g>
</svg>
