<?xml version="1.0" encoding="utf-8"?>
<!-- Generator: Adobe Illustrator 15.0.0, SVG Export Plug-In . SVG Version: 6.00 Build 0)  -->
<!DOCTYPE svg PUBLIC "-//W3C//DTD SVG 1.1//EN" "http://www.w3.org/Graphics/SVG/1.1/DTD/svg11.dtd">
<svg version="1.1" id="Layer_1" xmlns="http://www.w3.org/2000/svg" xmlns:xlink="http://www.w3.org/1999/xlink" x="0px" y="0px"
	 width="172.575px" height="44.778px" viewBox="-0.004 -0.002 172.575 44.778"
	 enable-background="new -0.004 -0.002 172.575 44.778" xml:space="preserve">
<polygon fill="#5CA07D" points="0,36 0,9.042 27,36 "/>
<g>
	<g id="XMLID_1_">
		<g>
			<polygon fill="#2EE88B" points="17.996,-0.002 35.996,35.998 17.996,35.998 			"/>
			<polygon fill="#2EE88B" points="17.996,-0.002 17.996,35.998 -0.004,35.998 			"/>
		</g>
	</g>
</g>
<path fill="#42545E" d="M45.816,25.822c0,2.271,0.581,3.993,1.743,5.169c1.162,1.176,2.678,1.764,4.548,1.764
	c1.924,0,3.453-0.603,4.588-1.803c1.135-1.203,1.703-2.912,1.703-5.13V8.75h4.568v17.434c0,2.938-0.975,5.383-2.925,7.333
	c-1.95,1.949-4.595,2.926-7.935,2.926s-5.978-0.977-7.915-2.926c-1.938-1.95-2.905-4.396-2.905-7.333V8.75h4.528v17.071
	L45.816,25.822L45.816,25.822z"/>
<path fill="#42545E" d="M67.175,44.776V16.564h2.404l1.002,1.562c0.855-0.667,1.85-1.208,2.986-1.623
	c1.135-0.414,2.157-0.621,3.065-0.621c2.858,0,5.029,0.982,6.512,2.945c1.482,1.964,2.224,4.415,2.224,7.354
	c0,2.938-0.755,5.391-2.264,7.354c-1.51,1.964-3.667,2.944-6.472,2.944c-0.748,0-1.563-0.134-2.444-0.399
	c-0.882-0.268-1.71-0.642-2.485-1.122v9.378L67.175,44.776z M71.704,31.231c0.587,0.428,1.229,0.77,1.924,1.021
	c0.694,0.255,1.349,0.381,1.963,0.381c1.896,0,3.226-0.675,3.987-2.023c0.762-1.349,1.142-2.812,1.142-4.387
	c0-1.765-0.354-3.286-1.062-4.569c-0.708-1.281-2.063-1.923-4.067-1.923c-0.615,0-1.269,0.135-1.963,0.4
	c-0.695,0.268-1.336,0.615-1.924,1.042V31.231z"/>
<path fill="#42545E" d="M92.905,30.75c0.774,0.399,1.796,0.802,3.065,1.203c1.269,0.399,2.504,0.602,3.707,0.602
	c1.788,0,3.139-0.308,4.047-0.923c0.907-0.613,1.361-1.456,1.361-2.523c0-2.432-2.283-4.309-6.854-5.63
	c-4.568-1.322-6.854-4.041-6.854-8.154c0-2.004,0.803-3.707,2.404-5.109c1.604-1.401,3.861-2.104,6.773-2.104
	c1.36,0,2.695,0.201,4.008,0.602c1.309,0.401,2.457,0.843,3.444,1.323c-0.239,0.614-0.493,1.222-0.763,1.822
	c-0.268,0.602-0.521,1.196-0.762,1.783c-0.723-0.348-1.551-0.688-2.483-1.021c-0.937-0.333-1.989-0.501-3.166-0.501
	c-1.36,0-2.512,0.248-3.444,0.741c-0.938,0.495-1.402,1.289-1.402,2.385c0,2.539,2.289,4.481,6.873,5.831
	c4.58,1.35,6.871,4.015,6.871,7.994c0,2.164-0.861,3.947-2.584,5.351c-1.724,1.404-4.201,2.104-7.436,2.104
	c-1.146,0-2.599-0.233-4.348-0.7c-1.75-0.469-2.919-0.955-3.508-1.464L92.905,30.75z"/>
<path fill="#42545E" d="M123.2,35.719c-0.4,0.269-0.955,0.502-1.662,0.701c-0.709,0.2-1.356,0.301-1.942,0.301
	c-2.164,0-3.875-0.562-5.131-1.684c-1.257-1.122-1.884-2.737-1.884-4.85V20.171h-2.646v-3.485h2.646v-4.688l4.528-0.921v5.609h3.524
	l1.402,3.485h-4.931v9.257c0,0.988,0.229,1.812,0.684,2.466s1.162,0.98,2.124,0.98c0.347,0,0.688-0.046,1.021-0.141
	c0.332-0.094,0.66-0.207,0.981-0.341L123.2,35.719z"/>
<path fill="#42545E" d="M124.843,17.807c0.748-0.508,1.857-0.929,3.326-1.264c1.47-0.333,2.619-0.501,3.447-0.501
	c2.297,0,4.233,0.655,5.812,1.964c1.575,1.31,2.363,2.979,2.363,5.01V36h-2.443c-0.188-0.268-0.375-0.556-0.562-0.86
	c-0.188-0.308-0.375-0.595-0.562-0.861c-0.695,0.589-1.552,1.103-2.565,1.544c-1.017,0.438-2.019,0.659-3.005,0.659
	c-2.324,0-4.055-0.573-5.189-1.724c-1.136-1.147-1.703-2.631-1.703-4.447c0-1.978,0.668-3.493,2.004-4.548
	c1.336-1.056,3.086-1.583,5.25-1.583h4.207c-0.08-1.147-0.373-2.104-0.882-2.865c-0.508-0.763-1.389-1.143-2.646-1.143
	c-1.016,0-2.022,0.135-3.024,0.401s-1.862,0.574-2.585,0.921c-0.214-0.614-0.428-1.229-0.643-1.844
	C125.23,19.036,125.03,18.421,124.843,17.807z M127.688,30.31c0,0.643,0.254,1.234,0.763,1.782c0.508,0.549,1.215,0.821,2.124,0.821
	c0.826,0,1.648-0.207,2.464-0.621s1.558-0.955,2.226-1.623v-3.445h-4.328c-1.067,0-1.877,0.309-2.424,0.922
	C127.962,28.76,127.688,29.482,127.688,30.31z"/>
<path fill="#42545E" d="M153.977,35.719c-0.398,0.269-0.955,0.502-1.662,0.701c-0.709,0.2-1.354,0.301-1.942,0.301
	c-2.164,0-3.874-0.562-5.129-1.684c-1.259-1.122-1.886-2.737-1.886-4.85V20.171h-2.646v-3.485h2.646v-4.688l4.529-0.921v5.609h3.525
	l1.402,3.485h-4.931v9.257c0,0.988,0.228,1.812,0.683,2.466c0.453,0.653,1.162,0.98,2.123,0.98c0.349,0,0.688-0.046,1.021-0.141
	c0.333-0.094,0.662-0.207,0.981-0.341L153.977,35.719z"/>
<path fill="#42545E" d="M172.571,27.504h-13.466c0.187,1.522,0.762,2.766,1.724,3.728c0.961,0.962,2.323,1.441,4.088,1.441
	c1.015,0,1.896-0.12,2.646-0.36c0.748-0.239,1.549-0.562,2.403-0.961c0.24,0.534,0.476,1.082,0.701,1.644
	c0.228,0.562,0.447,1.108,0.661,1.645c-0.883,0.643-1.979,1.107-3.286,1.401s-2.378,0.439-3.205,0.439
	c-3.313,0-5.892-0.929-7.733-2.785c-1.845-1.854-2.767-4.319-2.767-7.394c0-3.071,0.854-5.55,2.563-7.434
	c1.711-1.884,4.035-2.825,6.974-2.825c3.34,0,5.624,1.156,6.854,3.467C171.956,21.822,172.571,24.486,172.571,27.504z
	 M168.243,24.458c-0.269-1.441-0.771-2.559-1.504-3.346c-0.734-0.788-1.729-1.183-2.984-1.183c-1.282,0-2.317,0.4-3.106,1.202
	c-0.787,0.802-1.274,1.91-1.461,3.326H168.243L168.243,24.458z"/>
</svg>
