<?xml version="1.0" encoding="utf-8"?>
<!-- Generator: Adobe Illustrator 15.0.0, SVG Export Plug-In . SVG Version: 6.00 Build 0)  -->
<!DOCTYPE svg PUBLIC "-//W3C//DTD SVG 1.1//EN" "http://www.w3.org/Graphics/SVG/1.1/DTD/svg11.dtd">
<svg version="1.1" id="Layer_1" xmlns="http://www.w3.org/2000/svg" xmlns:xlink="http://www.w3.org/1999/xlink" x="0px" y="0px"
	 width="228px" height="444px" viewBox="0 0 228 444" enable-background="new 0 0 228 444" xml:space="preserve">
<linearGradient id="SVGID_1_" gradientUnits="userSpaceOnUse" x1="113.9995" y1="0" x2="113.9995" y2="444.0005">
	<stop  offset="0" style="stop-color:#282B36"/>
	<stop  offset="1" style="stop-color:#383D49"/>
</linearGradient>
<path fill="url(#SVGID_1_)" d="M228,403c0,22.644-18.356,41-41,41H41c-22.644,0-41-18.356-41-41V41C0,18.356,18.356,0,41,0h146
	c22.644,0,41,18.356,41,41V403z"/>
<path fill="#7F8291" d="M144.129,11.737c0-1.933-1.21-3.5-2.703-3.5H86.574c-1.494,0-2.704,1.567-2.704,3.5l0,0
	c0,1.933,1.21,3.5,2.704,3.5h54.852C142.919,15.237,144.129,13.67,144.129,11.737L144.129,11.737z"/>
<path fill="#02020D" d="M136.963,432.263c0-1.933-0.922-3.5-2.061-3.5H93.098c-1.139,0-2.061,1.567-2.061,3.5l0,0
	c0,1.933,0.922,3.5,2.061,3.5h41.804C136.041,435.763,136.963,434.195,136.963,432.263L136.963,432.263z"/>
</svg>
