<?xml version="1.0" encoding="utf-8"?>
<!-- Generator: Adobe Illustrator 15.0.0, SVG Export Plug-In . SVG Version: 6.00 Build 0)  -->
<!DOCTYPE svg PUBLIC "-//W3C//DTD SVG 1.1//EN" "http://www.w3.org/Graphics/SVG/1.1/DTD/svg11.dtd">
<svg version="1.1" id="Layer_1" xmlns="http://www.w3.org/2000/svg" xmlns:xlink="http://www.w3.org/1999/xlink" x="0px" y="0px"
	 width="416.797px" height="416.799px" viewBox="0 0 416.797 416.799" enable-background="new 0 0 416.797 416.799"
	 xml:space="preserve">
<circle fill="#514531" cx="208.399" cy="208.399" r="208.399"/>
<path fill="#352C1F" d="M370.5,164.575L46,255.286l104.198,153.265c18.473,5.362,37.999,8.248,58.201,8.248
	c109.34,0,195.5-90.898,205.134-171.507L370.5,164.575z"/>
<polygon fill="#40D37F" points="46,255.286 46,181 370.5,164.575 370.5,229.083 111.348,310.521 "/>
<polygon fill="#2EE88B" points="370.5,164.575 112.089,234.474 46,181 305.543,118.171 "/>
<g>
	<path fill="#40D37F" d="M158.746,194.804c2.596,2.104,3.371,4.306,2.326,6.614c-1.046,2.308-3.682,4.271-7.908,5.891l4.456,3.604
		c0.237,0.193,0.3,0.387,0.189,0.582s-0.374,0.349-0.783,0.459l-5.945,1.607c-0.381,0.104-0.792,0.129-1.232,0.07
		c-0.441-0.056-0.771-0.173-0.99-0.351l-4.457-3.605c-2.09,0.4-4.224,0.693-6.401,0.884c-2.179,0.186-4.047,0.281-5.604,0.291
		s-3.049-0.026-4.48-0.106c-1.43-0.08-2.431-0.153-3-0.22c-0.572-0.064-0.983-0.119-1.23-0.162
		c-0.855-0.152-1.231-0.426-1.132-0.819l1.1-4.008c0.035-0.193,0.27-0.366,0.706-0.521c0.406-0.146,0.836-0.18,1.288-0.101
		l0.138,0.018c4.998,0.462,9.625,0.355,13.883-0.319c1.221-0.186,2.375-0.423,3.46-0.717c2.379-0.643,4.105-1.503,5.181-2.583
		c1.076-1.078,0.942-2.161-0.4-3.245c-0.473-0.384-1.143-0.689-2.007-0.913c-0.867-0.225-1.713-0.38-2.545-0.467
		c-0.833-0.086-2.01-0.111-3.53-0.076c-1.524,0.036-2.763,0.078-3.722,0.127c-0.959,0.049-2.408,0.144-4.35,0.283
		c-1.416,0.09-2.531,0.163-3.343,0.218c-0.814,0.054-1.942,0.116-3.382,0.186c-1.442,0.07-2.624,0.104-3.542,0.106
		c-0.919,0-2.049-0.018-3.392-0.059c-1.343-0.04-2.49-0.119-3.438-0.238c-0.95-0.118-2.003-0.284-3.163-0.492
		c-1.159-0.208-2.172-0.465-3.04-0.772c-0.868-0.306-1.741-0.679-2.619-1.119c-0.877-0.441-1.664-0.943-2.359-1.506
		c-2.342-1.895-2.959-3.945-1.847-6.153c1.111-2.206,3.717-4.138,7.817-5.797l-4.583-3.707c-0.221-0.18-0.272-0.372-0.155-0.578
		c0.119-0.205,0.367-0.36,0.749-0.463l5.944-1.608c0.411-0.111,0.826-0.141,1.242-0.088c0.416,0.053,0.745,0.175,0.982,0.367
		l4.482,3.625c1.773-0.371,3.59-0.651,5.449-0.842s3.421-0.307,4.684-0.346c1.262-0.04,2.514-0.034,3.751,0.016
		c1.235,0.049,2.055,0.095,2.455,0.132c0.4,0.039,0.739,0.076,1.018,0.11c0.804,0.112,1.2,0.354,1.187,0.723l0.15,3.972
		c0.021,0.27-0.181,0.471-0.604,0.604c-0.361,0.152-0.815,0.212-1.367,0.177c-0.138-0.017-0.454-0.041-0.942-0.074
		c-0.491-0.032-1.29-0.059-2.393-0.081c-1.104-0.022-2.234-0.009-3.391,0.038c-1.156,0.046-2.47,0.164-3.943,0.352
		c-1.47,0.188-2.825,0.447-4.056,0.78c-2.791,0.754-4.699,1.665-5.731,2.733c-1.032,1.066-0.97,2.067,0.184,3.001
		c0.443,0.357,0.975,0.653,1.598,0.887c0.621,0.235,1.407,0.403,2.354,0.503c0.947,0.102,1.807,0.172,2.58,0.21
		c0.772,0.039,1.857,0.028,3.256-0.028c1.396-0.057,2.514-0.112,3.351-0.165c0.836-0.051,2.098-0.142,3.783-0.268
		c1.894-0.145,3.352-0.251,4.369-0.315s2.428-0.125,4.236-0.185c1.808-0.058,3.276-0.065,4.408-0.023
		c1.13,0.042,2.463,0.14,4.001,0.291c1.54,0.152,2.857,0.378,3.952,0.678c1.094,0.299,2.205,0.699,3.334,1.2
		C156.907,193.524,157.896,194.119,158.746,194.804z"/>
</g>
<g>
	<path fill="#40D37F" d="M322.374,148.755c1.944,1.574,2.526,3.226,1.744,4.956c-0.783,1.729-2.761,3.2-5.927,4.413l3.341,2.702
		c0.178,0.145,0.225,0.29,0.141,0.435c-0.084,0.147-0.278,0.262-0.586,0.345l-4.455,1.205c-0.284,0.077-0.596,0.095-0.924,0.054
		c-0.33-0.042-0.578-0.129-0.742-0.263l-3.34-2.702c-1.565,0.3-3.166,0.52-4.799,0.66c-1.632,0.139-3.031,0.212-4.197,0.219
		c-1.166,0.007-2.285-0.021-3.356-0.081c-1.069-0.062-1.819-0.114-2.248-0.164c-0.43-0.049-0.733-0.09-0.922-0.123
		c-0.644-0.114-0.924-0.319-0.849-0.615l0.822-3.003c0.024-0.145,0.202-0.274,0.528-0.391c0.306-0.109,0.627-0.134,0.965-0.075
		l0.104,0.013c3.744,0.346,7.213,0.267,10.402-0.239c0.916-0.138,1.781-0.317,2.594-0.537c1.783-0.482,3.076-1.126,3.883-1.936
		c0.811-0.808,0.707-1.619-0.299-2.432c-0.355-0.287-0.857-0.516-1.506-0.684c-0.648-0.168-1.283-0.284-1.906-0.35
		c-0.623-0.065-1.506-0.084-2.646-0.057c-1.144,0.026-2.067,0.059-2.786,0.096c-0.72,0.036-1.806,0.107-3.261,0.211
		c-1.062,0.068-1.896,0.122-2.506,0.164c-0.608,0.041-1.455,0.088-2.535,0.14c-1.08,0.052-1.967,0.079-2.653,0.079
		c-0.688,0-1.535-0.014-2.541-0.043c-1.006-0.031-1.865-0.09-2.576-0.179c-0.711-0.089-1.502-0.212-2.371-0.368
		c-0.866-0.156-1.627-0.349-2.274-0.579c-0.649-0.229-1.305-0.509-1.963-0.839s-1.246-0.706-1.769-1.127
		c-1.756-1.421-2.217-2.958-1.385-4.61c0.834-1.654,2.784-3.102,5.854-4.345l-3.433-2.778c-0.166-0.134-0.205-0.278-0.117-0.433
		c0.09-0.154,0.274-0.271,0.562-0.346l4.455-1.206c0.309-0.083,0.617-0.105,0.932-0.067c0.312,0.041,0.559,0.132,0.734,0.276
		l3.355,2.716c1.332-0.278,2.691-0.488,4.084-0.631c1.396-0.143,2.564-0.23,3.514-0.258c0.943-0.031,1.883-0.026,2.811,0.011
		c0.928,0.037,1.541,0.071,1.842,0.1c0.299,0.029,0.553,0.057,0.762,0.082c0.604,0.084,0.9,0.265,0.891,0.542l0.113,2.977
		c0.016,0.202-0.139,0.353-0.455,0.452c-0.271,0.115-0.609,0.159-1.021,0.133c-0.104-0.013-0.342-0.032-0.707-0.056
		c-0.369-0.024-0.967-0.044-1.793-0.061c-0.828-0.017-1.676-0.007-2.541,0.028c-0.867,0.036-1.852,0.123-2.955,0.264
		c-1.104,0.141-2.117,0.336-3.039,0.585c-2.092,0.565-3.521,1.248-4.295,2.048c-0.771,0.799-0.727,1.549,0.139,2.249
		c0.33,0.268,0.73,0.489,1.195,0.664c0.467,0.177,1.057,0.302,1.768,0.378c0.709,0.075,1.354,0.127,1.934,0.156
		c0.579,0.029,1.393,0.021,2.438-0.021c1.047-0.043,1.885-0.084,2.51-0.123c0.63-0.039,1.57-0.104,2.837-0.201
		c1.42-0.109,2.513-0.188,3.271-0.236c0.764-0.049,1.822-0.094,3.176-0.139c1.355-0.043,2.455-0.049,3.305-0.018
		c0.848,0.032,1.848,0.105,3,0.219c1.15,0.114,2.141,0.283,2.961,0.507c0.816,0.225,1.65,0.525,2.498,0.9
		C320.997,147.796,321.736,148.24,322.374,148.755z"/>
</g>
<polygon fill="#C6D6BF" points="295.277,184.922 218.586,205.667 152.976,154.299 231.6,135.985 "/>
<polyline fill="#9CA597" points="224.125,275.081 218.586,205.667 295.277,184.922 301.812,250.668 "/>
</svg>
