<?xml version="1.0" encoding="utf-8"?>
<!-- Generator: Adobe Illustrator 15.0.0, SVG Export Plug-In . SVG Version: 6.00 Build 0)  -->
<!DOCTYPE svg PUBLIC "-//W3C//DTD SVG 1.1//EN" "http://www.w3.org/Graphics/SVG/1.1/DTD/svg11.dtd">
<svg version="1.1" id="Layer_1" xmlns="http://www.w3.org/2000/svg" xmlns:xlink="http://www.w3.org/1999/xlink" x="0px" y="0px"
	 width="299.564px" height="298.682px" viewBox="0 0 299.564 298.682" enable-background="new 0 0 299.564 298.682"
	 xml:space="preserve">
<circle fill="#2D4C3B" cx="149.291" cy="149.292" r="149.291"/>
<path fill="#1D3327" d="M298.581,149.292c0-11.104,2.246,6.434-0.053-3.979l-99.16-98.688l-18.122,47.199l-35.364-34.88
	L84.547,244.443l57.315,53.957c4.973,0.5,2.324,0.186,7.429,0.186C231.741,298.583,298.581,231.744,298.581,149.292z"/>
<path fill="#24A5E0" d="M138.682,164.507c-1.689,26.18,0.504,90.335-36.918,86.744c-37.426-3.59-27.646-45.729-27.752-95.508
	c-0.072-33.11-7.605-71.712,5.549-86.164c21.923-24.084,49.181-33.411,66.319-10.638
	C163.024,81.718,141.313,123.738,138.682,164.507z"/>
<path fill="#1F7BC0" d="M145.656,124.777c-6.504,14.318-7.857,41.868-14.573,56.45c-7.279,17.164-2.982,22.583-11.908,37.878
	c-7.783,13.35-25.403,18.984-40.896,16.844c4.102,8.599,11.325,14.067,23.783,15.267c37.422,3.589,35.229-60.563,36.919-86.745
	C139.839,151.132,142.741,137.664,145.656,124.777z"/>
<path fill="#24A5E0" d="M161.788,160.871c-1.372,26.196-11.021,89.66,26.564,90.453s32.778-42.198,38.688-91.625
	c3.928-32.879,15.904-70.341,4.523-86.226C212.592,47,186.608,34.561,166.931,55.185C147.254,75.81,163.923,120.07,161.788,160.871z
	"/>
<path fill="#1F7BC0" d="M232.58,125.726c-6.329,14.396-9.271,40.613-15.812,55.274c-7.07,17.253-2.71,22.62-11.446,38.021
	c-7.623,13.438-24.569,18.141-40.087,16.186c4.206,8.549,9.91,15.409,23.363,16.129c14.075,0.753,23.457-6.687,27.801-17.342
	c6.735-16.535,7.526-39.666,9.222-60.616C226.695,160.057,229.822,138.647,232.58,125.726z"/>
<path fill="#2EE88B" d="M188.396,77.162c1.896,0.247,4.317,5.807,4.317,5.807s15.604,5.828,26.987,24.048
	c11.382,18.217,11.106,21.271,9.781,36.244c-1.328,15.001-4.956,34.771-10.041,42.141c-5.086,7.37-7.259,9.604-9.803,7.711
	c-2.547-1.896-1.599-8.673,0.034-11.816c1.636-3.146,17.105-29.536,16.423-33.264c-0.688-3.729,0.913-11.867-3.175-17.956
	c-4.087-6.088-24.639-37.12-30.866-34.512c-6.229,2.61-24.828,26.896-26.414,34.742c-1.586,7.847-2.635,11,2.419,21.128
	c5.05,10.13,12.236,24.281,13.068,25.206s2.408,10.111-0.629,12.01c-3.036,1.896-3.884,1.268-7.633-5.688
	c-3.747-6.951-10.889-31.604-10.925-33.13c-0.038-1.524-1.354-21.287-1.679-24.454c-0.328-3.168,0.391-12.075,9.497-23.346
	c9.105-11.271,12.013-16.26,18.556-17.824c-1.029-1.883-0.904-2.721-1.687-4.67C185.858,77.591,186.5,76.915,188.396,77.162z"/>
<path fill="#2EE88B" d="M122.004,78.27c-1.912,0.024-4.968,5.266-4.968,5.266s-16.177,3.972-29.603,20.736
	c-13.43,16.771-13.512,19.832-13.938,34.86c-0.428,15.055,0.874,35.109,5.065,43.021c4.189,7.911,6.09,10.387,8.837,8.8
	c2.748-1.587,2.596-8.431,1.341-11.743c-1.256-3.312-13.551-31.324-12.435-34.948c1.112-3.622,0.473-11.894,5.238-17.464
	c4.771-5.569,28.795-33.998,34.681-30.68c5.884,3.316,21.525,29.604,22.188,37.582c0.661,7.979,1.333,11.229-4.863,20.7
	c-6.193,9.474-14.981,22.69-15.918,23.515c-0.935,0.819-3.567,9.763-0.772,12c2.795,2.235,3.71,1.709,8.243-4.758
	c4.529-6.47,14.493-30.12,14.71-31.634c0.215-1.511,3.818-20.983,4.516-24.094c0.694-3.104,1.018-12.038-6.715-24.293
	c-7.732-12.256-10.036-17.546-16.354-19.863c1.242-1.75,1.218-2.598,2.219-4.439S123.916,78.245,122.004,78.27z"/>
</svg>
